<?xml version="1.0" encoding="UTF-8"?>
<svg width="500px" height="500px" viewBox="0 0 500 500" version="1.1" xmlns="http://www.w3.org/2000/svg" xmlns:xlink="http://www.w3.org/1999/xlink">
    <!-- Generator: Sketch 52.6 (67491) - http://www.bohemiancoding.com/sketch -->
    <title>Artboard Copy@1x</title>
    <desc>Created with Sketch.</desc>
    <defs>
        <linearGradient x1="0%" y1="100%" x2="100%" y2="0%" id="linearGradient-1">
            <stop stop-color="#E91E63" offset="0%"></stop>
            <stop stop-color="#F06292" offset="100%"></stop>
        </linearGradient>
    </defs>
    <g id="Artboard-Copy" stroke="none" stroke-width="1" fill="none" fill-rule="evenodd">
        <rect id="Rectangle" fill="url(#linearGradient-1)" x="0" y="0" width="500" height="500"></rect>
        <path d="M168.072276,309.168565 L168.072276,309.168565 C174.728701,322.594003 191.008268,328.081372 204.433706,321.424948 C208.662441,319.328311 212.271093,316.164816 214.903234,312.246918 L220.0434,304.664009 C233.902845,284.034463 228.414593,256.075613 207.785047,242.216169 C207.774529,242.209102 207.764007,242.20204 207.753483,242.194982 L173.857218,219.509913 C165.220581,213.718187 160.038283,204.003264 160.038283,193.604438 L160.038283,193.604438 C160.038283,188.537538 164.145816,184.430005 169.212716,184.430005 C170.945802,184.430005 172.643443,184.920895 174.109073,185.845836 L204.552131,205.058072 C204.917875,205.288888 205.401484,205.179508 205.632301,204.813763 C205.858277,204.45569 205.758701,203.982847 205.407508,203.746319 L151.25989,167.278012 C143.457166,162.022893 138.778773,153.231486 138.778773,143.824107 L138.778773,143.824107 C138.778773,139.238521 142.496125,135.521169 147.081711,135.521169 C148.648568,135.521169 150.183447,135.964523 151.508975,136.799998 L193.922376,163.532973 C194.139709,163.669958 194.426941,163.604822 194.563925,163.387488 C194.699529,163.172345 194.637217,162.88818 194.424031,162.749519 L132.346857,122.37328 C122.774546,116.147256 117,105.502834 117,94.0838794 L117,94.0838794 C117,88.5147066 121.514707,84 127.083879,84 C128.991876,84 130.86072,84.5413144 132.473343,85.5610687 L279.129356,178.300111 C299.8403,191.396833 306.265106,218.657364 293.582356,239.624366 L241.385416,325.915851 C228.522356,347.180941 235.333546,374.847273 256.598636,387.710333 C260.077368,389.814587 263.825222,391.437702 267.739886,392.535371 L351.448099,416.007078 C364.71798,419.727941 378.4917,411.986932 382.212563,398.717051 C384.555546,390.361163 382.389107,381.388061 376.491633,375.021724 L325.462107,319.935234 C319.557109,313.560776 311.932871,309.03225 303.510187,306.896576" id="Line" stroke="#FFFFFF" stroke-width="15" stroke-linecap="round"></path>
    </g>
</svg>